<svg xmlns="http://www.w3.org/2000/svg" version="1.1" xmlns:xlink="http://www.w3.org/1999/xlink" xmlns:svgjs="http://svgjs.dev/svgjs" width="100%" height="100%" viewBox="0 0 1000 600"><rect width="1000" height="600" x="0" y="0" fill="white"/><g><rect width="333.3333333333333" height="333.3333333333333" y="244.72749656825283" fill="white" transform="matrix(0.5617844311081667,0,0,0.5617844311081667,0,68.88516120302553)" x="222.5053253173828"/><path d="M409.55786323599807 343.9764650240241L409.55786323599807 343.9764650240241L408.01981682899475 407.49508330623Q408.01981682899475 438.79567685226186 414.03708610551644 457.0363675739149L414.03708610551644 457.0363675739149Q420.8368702206888 478.6229838125575 441.047339674118 478.6229838125575L441.047339674118 478.6229838125575Q455.0246736886391 478.6229838125575 465.0354669693096 454.7158063282608Q475.04626024998015 430.8086288439641 475.23514314206824 385.3688016616213L475.23514314206824 385.3688016616213Q441.23622256620615 380.2959468455403 441.23622256620615 356.4157526315419L441.23622256620615 356.4157526315419Q441.23622256620615 347.67317305489166 446.7677929773583 342.03366956254627Q452.2993633885104 336.39416607020087 461.8244578038115 336.39416607020087L461.8244578038115 336.39416607020087Q476.80017281936983 336.39416607020087 484.27453869199985 346.9985912974341Q491.74890456462987 357.57603325436895 492.7203022953688 378.5690175464489L492.7203022953688 378.5690175464489Q501.65176476410716 378.9467833306252 507.29126825645255 378.9467833306252L507.29126825645255 378.9467833306252Q508.4515488792796 379.13566622271327 508.4515488792796 380.9975118732962Q508.4515488792796 382.83237425358084 507.6690340406288 383.8037719843197L507.6690340406288 383.8037719843197Q505.72623857915096 386.7179651765365 498.35980578771415 386.7179651765365L498.35980578771415 386.7179651765365L492.53141940328067 386.7179651765365Q490.7775068338909 462.48698817417215 460.47529428889635 481.1324279502997L460.47529428889635 481.1324279502997Q451.7327147122461 486.3941656584688 441.047339674118 486.3941656584688L441.047339674118 486.3941656584688Q410.3403780746488 486.3941656584688 397.901090467131 451.801613136044L397.901090467131 451.801613136044Q393.6377337599991 464.42978363565 386.244317698264 472.49778145484265Q378.8778849068272 480.5657792740353 371.4844688450921 483.4799724662521Q364.1180360536553 486.3941656584688 355.94210515326944 486.3941656584688L355.94210515326944 486.3941656584688Q312.6339563244926 486.3941656584688 312.6339563244926 426.5452721368321L312.6339563244926 426.5452721368321L312.6339563244926 392.92411734514627Q312.4180901621062 368.07252540040895 308.1547334549743 358.35854809301975Q303.8913767478424 348.64457078563055 295.9043287395446 348.64457078563055L295.9043287395446 348.64457078563055Q277.66363801789157 348.64457078563055 277.66363801789157 385.1529354992349L277.66363801789157 385.1529354992349Q277.258888963417 386.34019939236026 275.5049763940273 386.34019939236026Q273.7780470949359 386.34019939236026 272.80664936419697 385.55768455370946L272.80664936419697 385.55768455370946Q269.89245617198026 383.61488909223164 269.89245617198026 376.22147303049655L269.89245617198026 376.22147303049655Q269.89245617198026 358.35854809301975 277.44777185550515 349.02233656980684Q285.0300708093284 339.7131083168922 298.251873255497 339.7131083168922L298.251873255497 339.7131083168922Q316.89731303162455 339.7131083168922 323.50821425470883 351.5587639778473Q330.1191154777932 363.40441963880244 330.1191154777932 392.92411734514627L330.1191154777932 392.92411734514627L330.1191154777932 427.51666986757107Q330.1191154777932 455.30943827482344 336.21733456520974 466.9662110436905Q342.3425369229245 478.6229838125575 355.37545647700506 478.6229838125575Q368.3813927607872 478.6229838125575 375.55894266013587 467.9376087744294L375.55894266013587 467.9376087744294Q389.75214283704344 446.75574159026127 389.75214283704344 351.15401492337276L389.75214283704344 351.15401492337276Q389.75214283704344 345.5414947013257 393.15203489462965 342.4114353467225Q396.55192695221587 339.30835926241764 400.7343338484529 339.30835926241764Q404.9167407446899 339.30835926241764 409.55786323599807 343.9764650240241ZM450.1676850349445 355.82212068497927L450.1676850349445 355.82212068497927Q450.1676850349445 372.1469992154527 475.04626024998015 376.8151049770592L475.04626024998015 376.8151049770592Q474.45262830341744 358.5474309851079 471.2416191379193 351.5587639778473Q468.0575932427196 344.57009697058675 462.4990395612691 344.57009697058675Q456.9674691501169 344.57009697058675 453.5675770925307 347.86205594697975Q450.1676850349445 351.15401492337276 450.1676850349445 355.82212068497927Z " fill="#d4af37" transform="matrix(0.5617844311081667,0,0,0.5617844311081667,0,68.88516120302553)"/><path d="M765.7451954815383 356.8131423328979L765.7451954815383 356.8131423328979L764.351325253509 414.37753736413964Q764.351325253509 442.74401919771674 769.8045368473777 459.27483102487025L769.8045368473777 459.27483102487025Q775.9669104870859 478.8379219445786 794.2828543606627 478.8379219445786L794.2828543606627 478.8379219445786Q806.949955731174 478.8379219445786 816.0223391451887 457.17179875100163Q825.0947225592033 435.50567555742464 825.2658996047508 394.3253691714386L825.2658996047508 394.3253691714386Q794.4540314062101 389.72804280530715 794.4540314062101 368.0863734753798L794.4540314062101 368.0863734753798Q794.4540314062101 360.16332165289793 799.4670734543854 355.05246415012414Q804.4801155025607 349.94160664735034 813.112329370882 349.94160664735034L813.112329370882 349.94160664735034Q826.6842236964296 349.94160664735034 833.4579439273787 359.551975061657Q840.2316641583277 369.13788961231415 841.1120032497145 388.1629955317305L841.1120032497145 388.1629955317305Q849.2062321177439 388.50534962282535 854.3170896205177 388.50534962282535L854.3170896205177 388.50534962282535Q855.3686057574521 388.67652666837284 855.3686057574521 390.36384326019765Q855.3686057574521 392.0267059883729 854.6594437116125 392.90704507975977L854.6594437116125 392.90704507975977Q852.8987655288388 395.5480623539204 846.2228607524883 395.5480623539204L846.2228607524883 395.5480623539204L840.940826204167 395.5480623539204Q839.351325066941 464.2145114820966 811.8896361884003 481.11213126399474L811.8896361884003 481.11213126399474Q803.9665843659184 485.8806346756736 794.2828543606627 485.8806346756736L794.2828543606627 485.8806346756736Q766.4543575273776 485.8806346756736 755.1811263848956 454.530781476841L755.1811263848956 454.530781476841Q751.3174159282532 465.97518966487036 744.6170572882531 473.2868948961114Q737.9411525119028 480.59860012735237 731.2407938719026 483.239617401513Q724.5648890955522 485.8806346756736 717.1553684097127 485.8806346756736L717.1553684097127 485.8806346756736Q677.9069172520478 485.8806346756736 677.9069172520478 431.6419651007823L677.9069172520478 431.6419651007823L677.9069172520478 401.17245099333655Q677.7112863428507 378.6504425720223 673.8475758862082 369.84705165815353Q669.9838654295659 361.0436607442848 662.7455217892739 361.0436607442848L662.7455217892739 361.0436607442848Q646.2147099621203 361.0436607442848 646.2147099621203 394.1297382622415L646.2147099621203 394.1297382622415Q645.8479020073758 395.2057082628255 644.2584008701494 395.2057082628255Q642.6933535965728 395.2057082628255 641.813014505186 394.496546216986L641.813014505186 394.496546216986Q639.1719972310252 392.7358680342123 639.1719972310252 386.0355093942122L639.1719972310252 386.0355093942122Q639.1719972310252 369.84705165815353 646.0190790529232 361.3860148353797Q652.8906147384707 352.9494318762555 664.8730079267921 352.9494318762555L664.8730079267921 352.9494318762555Q681.7706277086902 352.9494318762555 687.7618243028509 363.6846780184454Q693.7530208970115 374.4199241606354 693.7530208970115 401.17245099333655L693.7530208970115 401.17245099333655L693.7530208970115 432.52230419216914Q693.7530208970115 457.7097837512936 699.2795940818291 468.2738528479361Q704.8306211302963 478.8379219445786 716.6418372730702 478.8379219445786Q728.4285995521946 478.8379219445786 734.9333272829977 469.15419193932297L734.9333272829977 469.15419193932297Q747.7960595627058 449.95790897435916 747.7960595627058 363.31787006370087L747.7960595627058 363.31787006370087Q747.7960595627058 358.23146642457675 750.8772463825599 355.394818241219Q753.958433202414 352.58262392151096 757.7487820681074 352.58262392151096Q761.5391309338008 352.58262392151096 765.7451954815383 356.8131423328979ZM802.5482602742395 367.54838847508785L802.5482602742395 367.54838847508785Q802.5482602742395 382.34297598311724 825.0947225592033 386.57349439450417L825.0947225592033 386.57349439450417Q824.5567375589114 370.018228703701 821.6467277846048 363.6846780184454Q818.7611718739479 357.3511273331899 813.723675962123 357.3511273331899Q808.7106339139477 357.3511273331899 805.6294470940936 360.3344986984454Q802.5482602742395 363.31787006370087 802.5482602742395 367.54838847508785ZM904.8387719206644 403.81346826749717L904.8387719206644 403.81346826749717Q907.1374351037302 398.727064628373 912.1504771519055 398.727064628373Q917.1635192000808 398.727064628373 919.6333594286939 401.17245099333655L919.6333594286939 401.17245099333655L919.6333594286939 451.71858715713296Q919.6333594286939 461.7446712534835 922.8123617031465 466.85552875625723Q925.9669101139496 471.966386259031 931.4445755714678 471.966386259031L931.4445755714678 471.966386259031Q947.9753873986213 471.966386259031 947.9753873986213 437.63316169494294L947.9753873986213 437.63316169494294Q948.1710183078185 436.5816455580086 950.616404672782 436.5816455580086L950.616404672782 436.5816455580086Q953.7954069472346 436.5816455580086 953.7954069472346 445.8985676085197L953.7954069472346 445.8985676085197Q953.7954069472346 460.86433216209656 947.3640408073804 469.8389001215128Q940.9326746675263 478.8379219445786 929.3170894339496 478.8379219445786L929.3170894339496 478.8379219445786Q911.5391305606645 478.8379219445786 905.7191110120514 463.1629953451623L905.7191110120514 463.1629953451623Q902.3933855557009 470.3768851218047 896.5733660070878 474.60740353319164Q890.7533464584744 478.8379219445786 883.3682796362846 478.8379219445786L883.3682796362846 478.8379219445786Q852.5564114377439 478.8379219445786 852.5564114377439 438.5135007863298L852.5564114377439 438.5135007863298Q852.5564114377439 418.09452463888425 862.1423259884011 408.4107946336286Q871.7526944027077 398.727064628373 887.5987980476716 398.727064628373L887.5987980476716 398.727064628373Q899.7523682815404 398.727064628373 904.8387719206644 403.81346826749717ZM871.7526944027077 460.1551701162571Q874.222534631321 467.90704489319154 877.3770830421238 469.93671557611134Q880.5560853165764 471.966386259031 885.8381198648976 471.966386259031Q891.1201544132191 471.966386259031 897.355889643876 465.3638430736295Q903.6160787381828 458.76129988822794 903.6160787381828 448.1972307915854L903.6160787381828 448.1972307915854L903.6160787381828 424.0612673693953Q903.6160787381828 415.7958614558185 899.312198735847 410.6850039530447Q894.9838648698615 405.5741464502709 889.6284687305913 405.5741464502709Q884.2486187276716 405.5741464502709 881.0696164532187 406.65011645085485Q877.9150680424159 407.70163258778916 875.1028737227077 411.0518119077892L875.1028737227077 411.0518119077892Q869.2828541740946 417.3853625930448 869.2828541740946 438.5135007863298L869.2828541740946 438.5135007863298Q869.2828541740946 452.4277492029724 871.7526944027077 460.1551701162571ZM948.3421953533659 383.39449212005155Q948.3421953533659 378.1124575717303 950.9832126275264 375.3980787066208Q953.6242299016872 372.65924597786164 957.659117403877 372.65924597786164Q961.7184587697163 372.65924597786164 964.1882989983296 375.1290862064748L964.1882989983296 375.1290862064748L964.1882989983296 401.17245099333655L988.2998085568702 401.17245099333655Q991.9923419679651 401.17245099333655 993.141673559498 402.59077508501537Q994.2910051510307 404.00909917669424 994.2910051510307 407.33482463304466L994.2910051510307 407.33482463304466L964.1882989983296 407.33482463304466L964.1882989983296 451.71858715713296Q964.1882989983296 461.40231716238856 969.7393260467968 466.6843517107098Q975.2658992316144 471.966386259031 982.5042428719066 471.966386259031L982.5042428719066 471.966386259031Q993.410666059644 471.966386259031 998.5215235624178 463.87215739100174Q1003.6323810651916 455.75347465932276 1003.6323810651916 437.63316169494294L1003.6323810651916 437.63316169494294Q1003.9747351562864 436.5816455580086 1006.2733983393523 436.5816455580086L1006.2733983393523 436.5816455580086Q1009.4279467501551 436.5816455580086 1009.4279467501551 445.8985676085197L1009.4279467501551 445.8985676085197Q1009.4279467501551 460.1551701162571 1002.3118724281112 469.49654603041785Q995.1713442424177 478.8379219445786 980.3767567343882 478.8379219445786Q965.5821692263589 478.8379219445786 956.9744092216872 471.08604716764415Q948.3421953533659 463.33417239070974 948.3421953533659 448.026053746038L948.3421953533659 448.026053746038L948.3421953533659 383.39449212005155ZM1077.7520417872365 442.20603419742474L1077.7520417872365 442.20603419742474Q1081.4445751983314 442.20603419742474 1081.4445751983314 447.31689170019854Q1081.4445751983314 452.4277492029724 1079.3415429244628 457.5141528420965Q1077.2140567869444 462.62501034487036 1073.2525308757035 467.56469080209666Q1069.2910049644627 472.4799173956734 1062.1749306424188 475.658919670126Q1055.034402456725 478.8379219445786 1046.059834497309 478.8379219445786L1046.059834497309 478.8379219445786Q1026.3255665320532 478.8379219445786 1015.1501508441697 468.88519943917703Q1003.9747351562864 458.9324769337754 1003.9747351562864 439.6628323778627Q1003.9747351562864 420.3687339583003 1013.8296422070896 409.53567236151184Q1023.6845492578925 398.727064628373 1039.0171217662141 398.727064628373L1039.0171217662141 398.727064628373Q1050.094721999499 398.727064628373 1055.2055795022727 404.6204457679351Q1060.3164370050465 410.5138269074973 1060.3164370050465 418.60805577552657L1060.3164370050465 418.60805577552657Q1060.3164370050465 423.0097512324609 1057.6754197308858 425.65076850662155Q1055.034402456725 428.2917857807822 1052.564562228112 428.2917857807822L1052.564562228112 428.2917857807822Q1047.9916897256303 428.2917857807822 1046.5733656339514 426.18875350691354L1046.5733656339514 426.18875350691354Q1047.6493356345354 423.5477362327529 1047.6493356345354 418.60805577552657Q1047.6493356345354 413.6928291819499 1044.2991563145351 409.6334878161104Q1040.9489769945353 405.5741464502709 1036.204927446506 405.5741464502709L1036.204927446506 405.5741464502709Q1027.9150676692796 405.5741464502709 1024.3203497127831 413.6928291819499Q1020.7011778926371 421.7870580499792 1020.7011778926371 439.1248473775707Q1020.7011778926371 456.4626367051622 1027.4748981235862 464.2145114820966Q1034.2486183545352 471.966386259031 1046.402188588404 471.966386259031Q1058.5557588222728 471.966386259031 1066.8211647358494 464.4835039822426Q1075.1110245130758 457.0006217054542 1075.1110245130758 443.2575503343591L1075.1110245130758 443.2575503343591Q1075.2822015586232 442.20603419742474 1077.7520417872365 442.20603419742474ZM1170.7011775195008 436.5816455580086L1170.7011775195008 436.5816455580086Q1173.8801797939532 436.5816455580086 1173.8801797939532 445.8985676085197L1173.8801797939532 445.8985676085197Q1173.8801797939532 459.4704619340674 1166.935282517457 469.15419193932297Q1159.9659313773107 478.8379219445786 1148.8883311440259 478.8379219445786Q1137.7862770470915 478.8379219445786 1130.4745718158504 470.98823171304565Q1123.1628665846094 463.1629953451623 1123.1628665846094 450.83824806574603L1123.1628665846094 450.83824806574603L1123.1628665846094 425.82194555216904Q1123.1628665846094 404.8894382680811 1112.598797487967 404.8894382680811L1112.598797487967 404.8894382680811Q1103.281875437456 404.8894382680811 1097.2906788432952 414.37753736413964Q1091.2994822491346 423.8900903238478 1091.2994822491346 446.26537556326423L1091.2994822491346 446.26537556326423L1091.2994822491346 476.36808171596545Q1089.5388040663609 478.8379219445786 1085.1371086094264 478.8379219445786Q1080.735413152492 478.8379219445786 1078.0943958783314 476.09908921581945Q1075.4533786041707 473.36025648706027 1075.4533786041707 468.07822193873903L1075.4533786041707 468.07822193873903L1075.4533786041707 379.87313575450406Q1075.4533786041707 356.9843193784453 1079.8550740611051 346.6892427819488Q1084.2567695180396 336.39416618545226 1096.7526938430033 336.39416618545226L1096.7526938430033 336.39416618545226Q1103.4530524830034 336.39416618545226 1107.1455858940983 342.0185548248685Q1110.8381193051932 347.6673973279342 1110.8381193051932 358.03583551537963L1110.8381193051932 358.03583551537963Q1110.8381193051932 376.88976438924857 1091.2994822491346 396.42840144530726L1091.2994822491346 396.42840144530726L1091.2994822491346 411.9321509991761Q1098.709002934974 398.727064628373 1114.7262836254852 398.727064628373L1114.7262836254852 398.727064628373Q1126.1706918135146 398.727064628373 1132.9444120444637 405.9409544050154Q1139.7181322754127 413.1548441816579 1139.7181322754127 426.7022846435559L1139.7181322754127 426.7022846435559L1139.7181322754127 451.71858715713296Q1139.7181322754127 461.7446712534835 1142.8971345498653 466.85552875625723Q1146.0516829606681 471.966386259031 1152.2140566003764 471.966386259031Q1158.3764302400843 471.966386259031 1163.2182952427122 463.60316489085574Q1168.06016024534 455.23994352268045 1168.06016024534 437.63316169494294L1168.06016024534 437.63316169494294Q1168.255791154537 436.5816455580086 1170.7011775195008 436.5816455580086ZM1091.2994822491346 387.9673646225334L1091.2994822491346 387.9673646225334Q1103.281875437456 372.48806893231415 1103.281875437456 357.8646584698322Q1103.281875437456 343.26570187099986 1096.9483247522003 343.26570187099986L1096.9483247522003 343.26570187099986Q1093.4269683866528 343.26570187099986 1092.3509983860688 351.3599307390292Q1091.2994822491346 359.4541596070585 1091.2994822491346 387.9673646225334ZM1249.2469875621298 451.3517792023884L1249.2469875621298 451.3517792023884Q1249.2469875621298 442.9151962432642 1245.2854616508887 436.9239996491035Q1241.3239357396478 430.9328030549428 1235.063746645341 427.5826237349428Q1228.8035575510344 424.25689827859236 1221.247313683297 421.61588100443174Q1213.66661595191 418.9748637302711 1206.1103720841727 416.23603100151195Q1198.5296743527858 413.49719827275277 1192.269485258479 409.7313032707089Q1186.033750027822 405.9409544050154 1182.072224116581 399.2405957650153Q1178.1106982053402 392.56469098866484 1178.1106982053402 383.0521380289567L1178.1106982053402 383.0521380289567Q1178.1106982053402 366.6680493837009 1190.1664529846105 357.3511273331899Q1202.2222077638808 348.00975141902916 1221.1494982286986 348.00975141902916Q1240.0767886935164 348.00975141902916 1251.3500198359984 356.64196528735044Q1262.6232509784802 365.27417915567173 1262.6232509784802 375.4714402975697L1262.6232509784802 375.4714402975697Q1262.6232509784802 382.5141530286647 1259.8844182497212 385.9621478032633Q1257.1700393846115 389.3856887142122 1253.453052109867 389.3856887142122L1253.453052109867 389.3856887142122Q1246.605970287969 389.3856887142122 1244.649661195998 386.7446714400516L1244.649661195998 386.7446714400516L1244.1361300593558 385.86433234866473Q1245.8968082421295 383.565669165599 1245.8968082421295 377.060941434796L1245.8968082421295 377.060941434796Q1245.8968082421295 367.0348573384455 1237.4357714193557 361.31265324443075Q1228.9991884602316 355.59044915041613 1217.7993189086985 355.59044915041613Q1206.623903220815 355.59044915041613 1200.1191754900121 361.5571918809271Q1193.5899938955595 367.54838847508785 1193.5899938955595 376.18060234340913Q1193.5899938955595 384.8128162117304 1197.5515198068003 390.5350203057451Q1201.5130457180414 396.2572243997598 1207.8710502669464 399.4117728105628Q1214.204600952202 402.59077508501537 1221.858660274538 405.06061531362855Q1229.512719596874 407.5304555422417 1237.1667789192097 410.4160114528987Q1244.8452921051953 413.32602122720533 1251.178842790451 417.45872418399375Q1257.5123934757064 421.61588100443174 1261.4739193869475 429.17212487216904Q1265.4354452981881 436.75282260355607 1265.4354452981881 447.48806874574603L1265.4354452981881 447.48806874574603Q1265.4354452981881 466.3175437559653 1252.0591818818377 476.36808171596545Q1238.682918465487 486.394165812316 1218.5084809545378 486.394165812316Q1198.3584973072384 486.394165812316 1183.4660943446104 476.09908921581945Q1168.598145245632 465.8040126193229 1168.598145245632 450.3002630654541L1168.598145245632 450.3002630654541Q1168.598145245632 443.0863732888116 1171.41033956534 438.95367033202325Q1174.2225338850483 434.82096737523483 1178.1106982053402 434.82096737523483L1178.1106982053402 434.82096737523483Q1184.9822338908878 434.82096737523483 1186.914089119209 437.09517669465095L1186.914089119209 437.09517669465095L1187.4276202558513 437.9755157860379Q1185.8625729822747 442.37721124297224 1185.8625729822747 448.7107619282278L1185.8625729822747 448.7107619282278Q1185.8625729822747 460.6931551165491 1195.6196645784792 469.66772307596534Q1205.4012100383334 478.64229103538156 1221.247313683297 478.64229103538156L1221.247313683297 478.64229103538156Q1232.6917218713265 478.64229103538156 1240.9571277849032 470.6458776219508Q1249.2469875621298 462.62501034487036 1249.2469875621298 451.3517792023884ZM1272.6493350748308 383.39449212005155Q1272.6493350748308 378.1124575717303 1275.2903523489915 375.3980787066208Q1277.931369623152 372.65924597786164 1281.9907109889916 372.65924597786164Q1286.0255984911812 372.65924597786164 1288.4954387197947 375.1290862064748L1288.4954387197947 375.1290862064748L1288.4954387197947 401.17245099333655L1312.6314021419846 401.17245099333655Q1316.3239355530798 401.17245099333655 1317.4732671446125 402.59077508501537Q1318.5981448724958 404.00909917669424 1318.5981448724958 407.33482463304466L1318.5981448724958 407.33482463304466L1288.4954387197947 407.33482463304466L1288.4954387197947 451.71858715713296Q1288.4954387197947 461.40231716238856 1294.0464657682617 466.6843517107098Q1299.597492816729 471.966386259031 1306.8113825933713 471.966386259031L1306.8113825933713 471.966386259031Q1317.7178057811088 471.966386259031 1322.8286632838826 463.87215739100174Q1327.9395207866567 455.75347465932276 1327.9395207866567 437.63316169494294L1327.9395207866567 437.63316169494294Q1328.2818748777515 436.5816455580086 1330.580538060817 436.5816455580086L1330.580538060817 436.5816455580086Q1333.7595403352698 436.5816455580086 1333.7595403352698 445.8985676085197L1333.7595403352698 445.8985676085197Q1333.7595403352698 460.1551701162571 1326.6190121495763 469.49654603041785Q1319.4784839638826 478.8379219445786 1304.7083503195029 478.8379219445786Q1289.9137628114734 478.8379219445786 1281.281548943152 471.08604716764415Q1272.6493350748308 463.33417239070974 1272.6493350748308 448.026053746038L1272.6493350748308 448.026053746038L1272.6493350748308 383.39449212005155ZM1363.9356080789198 398.727064628373Q1379.5371730873871 398.727064628373 1389.3920801381903 409.0955028158184Q1399.2469871889932 419.48839486691344 1399.2469871889932 437.36416919479694Q1399.2469871889932 455.23994352268045 1390.003426729431 467.02670580180467Q1380.759866269869 478.8379219445786 1365.2561167160002 478.8379219445786Q1349.776821025781 478.8379219445786 1339.4817444292844 468.1760373933376Q1329.1622139691383 457.5141528420965 1329.1622139691383 438.58686237727875Q1329.1622139691383 419.6595719124609 1338.772582383445 409.1933182704169Q1348.358496934102 398.727064628373 1363.9356080789198 398.727064628373ZM1364.0334235335183 405.5741464502709L1364.0334235335183 405.5741464502709Q1359.2893739854892 405.5741464502709 1355.8413792108904 407.97062508793516Q1352.4178382999416 410.34264986194984 1352.4178382999416 414.7443453188842L1352.4178382999416 414.7443453188842Q1352.4178382999416 426.0175764613661 1361.2212292138104 436.31265305786263Q1370.024620127679 446.60772965435916 1382.1781903615479 449.95790897435916L1382.1781903615479 449.95790897435916Q1382.5205444526425 443.2575503343591 1382.5205444526425 438.5135007863298L1382.5205444526425 438.5135007863298Q1382.5205444526425 420.1975569127529 1378.6568339960002 412.8858516815119Q1374.7686696757085 405.5741464502709 1364.0334235335183 405.5741464502709ZM1345.888656705489 438.5135007863298L1345.888656705489 438.5135007863298Q1345.888656705489 456.4626367051622 1350.388167617022 464.2145114820966Q1354.8876785285547 471.966386259031 1365.0849396704527 471.966386259031L1365.0849396704527 471.966386259031Q1372.1276524015477 471.966386259031 1375.9180012672412 468.34721443888503Q1379.7083501329346 464.7524964823886 1381.1022203609639 456.63381375070963L1381.1022203609639 456.63381375070963Q1369.6578121729347 454.18842738574614 1360.0718976222774 446.26537556326423Q1350.4859830716202 438.3423237407823 1346.084287614686 428.6585937355267L1346.084287614686 428.6585937355267Q1345.888656705489 431.6419651007823 1345.888656705489 438.5135007863298ZM1427.4178381133736 448.3684078371329L1427.4178381133736 448.3684078371329L1427.4178381133736 476.36808171596545Q1425.6571599305996 478.8379219445786 1421.2554644736651 478.8379219445786Q1416.8537690167307 478.8379219445786 1414.2127517425704 476.09908921581945Q1411.5717344684097 473.36025648706027 1411.5717344684097 468.07822193873903L1411.5717344684097 468.07822193873903L1411.5717344684097 401.17245099333655Q1413.3324126511832 398.727064628373 1417.7341081081177 398.727064628373Q1422.1358035650521 398.727064628373 1424.7768208392129 401.4414434934825Q1427.4178381133736 404.1802762222417 1427.4178381133736 409.46231077056296L1427.4178381133736 409.46231077056296L1427.4178381133736 422.8385741869135Q1436.221229027242 401.00127394778906 1451.7249785811111 401.00127394778906L1451.7249785811111 401.00127394778906Q1462.8025788143957 401.00127394778906 1467.9134363171695 406.8946550873512Q1473.0242938199433 412.812490090563 1473.0242938199433 420.9067189585923L1473.0242938199433 420.9067189585923Q1473.0242938199433 425.30841441552667 1470.3832765457828 427.9494316896873Q1467.742259271622 430.5904489638479 1465.272419043009 430.5904489638479L1465.272419043009 430.5904489638479Q1460.699546540527 430.5904489638479 1459.2812224488482 428.46296282632966L1459.2812224488482 428.46296282632966Q1460.3327385857826 425.82194555216904 1460.3327385857826 420.9067189585923Q1460.3327385857826 415.96703850136595 1457.0070131294322 411.9321509991761Q1453.6568338094323 407.87280963333666 1448.8883303977534 407.87280963333666L1448.8883303977534 407.87280963333666Q1440.6229244841766 407.87280963333666 1434.020381298775 422.93638964151205Q1427.4178381133736 437.9755157860379 1427.4178381133736 448.3684078371329ZM1553.8443131819884 438.68467783187725L1553.8443131819884 438.68467783187725Q1557.5368465930835 438.68467783187725 1557.5368465930835 444.3090664712934L1557.5368465930835 444.3090664712934Q1557.5368465930835 457.34297579654907 1548.4644631790686 468.07822193873903Q1539.392079765054 478.8379219445786 1520.9049588459295 478.8379219445786Q1502.4178379268053 478.8379219445786 1491.2424222389218 468.88519943917703Q1480.0670065510385 458.9324769337754 1480.0670065510385 439.6628323778627Q1480.0670065510385 420.3687339583003 1489.9219136018417 409.53567236151184Q1499.7768206526446 398.727064628373 1515.109393160966 398.727064628373L1515.109393160966 398.727064628373Q1526.186993394251 398.727064628373 1531.2978508970245 404.6204457679351Q1536.4087083997986 410.5138269074973 1536.4087083997986 418.60805577552657L1536.4087083997986 418.60805577552657Q1536.4087083997986 431.81314214632965 1525.4044697574625 440.54317146924956Q1514.4002311151264 449.2487469285198 1497.3069804240313 449.2487469285198L1497.3069804240313 449.2487469285198Q1498.8964815612576 460.5219780710017 1505.4990247466592 466.2441821650164Q1512.1015679320608 471.966386259031 1522.9346295288494 471.966386259031Q1533.7676911256378 471.966386259031 1542.473266584908 463.7743419364032Q1551.2032959078276 455.5822976137753 1551.2032959078276 439.7361939688116L1551.2032959078276 439.7361939688116Q1551.3744729533753 438.68467783187725 1553.8443131819884 438.68467783187725ZM1496.793449287389 441.15451806049043L1496.793449287389 441.15451806049043L1496.793449287389 442.74401919771674Q1507.6998724751263 441.32569510603787 1515.7207397522068 435.8724835121692Q1523.7171531656375 430.41927191830047 1523.7171531656375 419.6595719124609L1523.7171531656375 419.6595719124609Q1523.7171531656375 412.812490090563 1520.733781800382 409.1933182704169Q1517.7504104351267 405.5741464502709 1512.2727449776082 405.5741464502709L1512.2727449776082 405.5741464502709Q1504.0073390640314 405.5741464502709 1500.3881672438854 413.6928291819499Q1496.793449287389 421.7870580499792 1496.793449287389 441.15451806049043Z " fill="white" transform="matrix(0.5617844311081667,0,0,0.5617844311081667,0,68.88516120302553)"/></g></svg>